<svg width="84" height="84" viewBox="0 0 84 84" fill="none" xmlns="http://www.w3.org/2000/svg">
<path fill-rule="evenodd" clip-rule="evenodd" d="M42 84C65.1958 84 84 65.196 84 42C84 18.804 65.1958 0 42 0C18.8042 0 0 18.804 0 42C0 65.196 18.8042 84 42 84ZM67.8286 32.8284C69.3906 31.2664 69.3906 28.7336 67.8286 27.1716C66.2661 25.6094 63.7339 25.6094 62.1714 27.1716L40.0439 49.2993L26.8716 35.7153C25.3335 34.1294 22.8013 34.0906 21.2153 35.6284C19.6294 37.1663 19.5903 39.6987 21.1284 41.2847L37.1284 57.7847C37.8745 58.554 38.8979 58.9917 39.9692 59C41.0405 59.0081 42.0708 58.5862 42.8286 57.8284L67.8286 32.8284Z" fill="#788CDE"/>
</svg>
