<svg width="47" height="254" viewBox="0 0 47 254" fill="none" xmlns="http://www.w3.org/2000/svg">
<path fill-rule="evenodd" clip-rule="evenodd" d="M0.000347201 254C0.000347201 254 -0.000320559 254 0.000309114 230.372L0.000347349 230.336L0.000347201 254ZM0.000316647 23.6683C0.0222081 33.2375 7.74024 43.6799 16.915 56.0932C30.387 74.3206 47 96.7976 47 127C47 157.202 30.3871 179.679 16.9151 197.907C7.73904 210.322 0.020164 220.765 0.000347349 230.336L0.000347995 127L0.000316647 23.6683ZM0.000316647 23.6683L0.000269969 23.6279C-0.000359704 4.57764e-05 0.000309467 0 0.000309467 0L0.000316647 23.6683ZM12.2322 145.232C11.2559 146.209 11.2559 147.791 12.2322 148.768C13.2085 149.744 14.7915 149.744 15.7678 148.768L35.7678 128.768C36.7441 127.791 36.7441 126.209 35.7678 125.232L15.7678 105.232C14.7915 104.256 13.2085 104.256 12.2322 105.232C11.2559 106.209 11.2559 107.791 12.2322 108.768L30.4645 127L12.2322 145.232Z" fill="#788CDE"/>
</svg>
