<svg width="52" height="64" viewBox="0 0 52 64" fill="none" xmlns="http://www.w3.org/2000/svg">
<path d="M16 19.8667H20V51.8667H16V19.8667Z" fill="#FF5252"/>
<path d="M24 19.8667H28V51.8667H24V19.8667Z" fill="#FF5252"/>
<path d="M32 19.8667H36V51.8667H32V19.8667Z" fill="#FF5252"/>
<path d="M0 7.8667H52V11.8667H0V7.8667Z" fill="#FF5252"/>
<path d="M35.8669 9.86666H32.1335V5.86666C32.1335 4.66666 31.2002 3.73334 30.0002 3.73334H22.0002C20.8002 3.73334 19.8669 4.66666 19.8669 5.86666V9.86666H16.1335V5.86666C16.1335 2.66666 18.8002 0 22.0002 0H30.0002C33.2002 0 35.8669 2.66666 35.8669 5.86666V9.86666Z" fill="#FF5252"/>
<path d="M38 63.8667H14C10.8 63.8667 8 61.2001 7.73334 58.0001L4 10.0001L8 9.7334L11.7333 57.7334C11.8667 58.9334 12.9333 59.8667 14 59.8667H38C39.2 59.8667 40.2667 58.8001 40.2667 57.7334L44 9.7334L48 10.0001L44.2667 58.0001C44 61.3334 41.2 63.8667 38 63.8667Z" fill="#FF5252"/>
</svg>
